# xmcd
# 
# Track frame offsets:
#     150
#     14472
#     30880
#     48615
#     60627
#     78550
#     98767
#     119217
#     134855
#     155370
#     174342
#     198790
#     222807
#     240162
#     260570
#     282582
# 
# Disc length: 4065
# 
# Revision: 3
# Processed by: cddbd v1.5.2PL0 Copyright (c) Steve Scherf et al.
# Submitted via: BonkEnc v1.0.8
# 
DISCID=e10fdf10
DTITLE=TULIP - チューリップ・ニューベストナウ
DYEAR=0
DGENRE=Pop
TTITLE0=魔法の黄色い靴
TTITLE1=心の旅
TTITLE2=ブルー・スカイ
TTITLE3=銀の指環
TTITLE4=青春の影
TTITLE5=サボテンの花
TTITLE6=虹とスニーカーの頃
TTITLE7=僕がつくった愛のうた(いとしのEmily)
TTITLE8=WAKE UP
TTITLE9=博多っ子純情
TTITLE10=さよなら道化者
TTITLE11=Shooting Star
TTITLE12=We Can Fly
TTITLE13=星空の伝言
TTITLE14=夏の夜の海
TTITLE15=愛の迷路
EXTD=
EXTT0=
EXTT1=
EXTT2=
EXTT3=
EXTT4=
EXTT5=
EXTT6=
EXTT7=
EXTT8=
EXTT9=
EXTT10=
EXTT11=
EXTT12=
EXTT13=
EXTT14=
EXTT15=
PLAYORDER=
